<svg width="76.207794" height="76.207794" viewBox="0 0 76.207794 76.207794" xmlns="http://www.w3.org/2000/svg">
    <defs/>
    <path id="path126" fill="#0b793a" stroke="none" d="M 76.207794 38.103897 C 76.207794 59.14809822222 59.14809822222 76.207794 38.103897 76.207794 C 17.05969577778 76.207794 0 59.14809822222 0 38.103897 C -0 17.05969577778 17.05969577778 0 38.103897 0 C 59.14809822222 -0 76.207794 17.05969577778 76.207794 38.103897 Z"/>
    <path id="path72" fill="#ffffff" stroke="none" d="M 42.795072 11.825639 C 44.311472 11.825639 45.552072 10.584999 45.552072 9.0686587 C 45.552072 7.5523287 44.311472 6.3116887 42.795072 6.3116887 C 41.278772 6.3116887 40.038172 7.5523287 40.038172 9.0686587 C 40.038172 10.584999 41.278772 11.825639 42.795072 11.825639 Z M 28.320972 20.785789 C 24.461242 20.785789 21.428572 23.818489 21.428572 27.678189 C 21.428572 31.537989 24.461242 34.570689 28.320972 34.570689 C 32.180772 34.570689 35.213472 31.537989 35.213472 27.678189 C 35.213472 23.818489 32.180772 20.785789 28.320972 20.785789 Z M 28.320972 32.502989 C 25.701872 32.502989 23.496302 30.297389 23.496302 27.678189 C 23.496302 25.059089 25.701872 22.853489 28.320972 22.853489 C 30.940172 22.853489 33.145672 25.059089 33.145672 27.678189 C 33.145672 30.297389 30.940172 32.502989 28.320972 32.502989 Z M 36.316272 18.718089 L 39.624572 15.409699 L 40.727372 16.512489 C 42.519472 18.304489 44.862872 19.407289 47.757672 19.407289 L 47.757672 16.650389 C 45.689972 16.650389 44.035772 15.823249 42.795072 14.582609 L 40.175972 11.963489 C 39.486772 11.412089 38.797472 11.136389 37.970372 11.136389 C 37.143372 11.136389 36.454072 11.412089 36.040572 11.963489 L 32.180772 15.823249 C 31.629372 16.374689 31.353672 17.063889 31.353672 17.753089 C 31.353672 18.580189 31.629372 19.269489 32.180772 19.682989 L 36.591972 23.542789 L 36.591972 30.435189 L 39.348872 30.435189 L 39.348872 21.888589 Z M 47.619872 20.785789 C 43.760072 20.785789 40.727372 23.818489 40.727372 27.678189 C 40.727372 31.537989 43.760072 34.570689 47.619872 34.570689 C 51.479572 34.570689 54.512272 31.537989 54.512272 27.678189 C 54.512272 23.818489 51.479572 20.785789 47.619872 20.785789 Z M 47.619872 32.502989 C 45.000672 32.502989 42.795072 30.297389 42.795072 27.678189 C 42.795072 25.059089 45.000672 22.853489 47.619872 22.853489 C 50.238972 22.853489 52.444572 25.059089 52.444572 27.678189 C 52.444572 30.297389 50.238972 32.502989 47.619872 32.502989 Z"/>
    <path id="path82" fill="#ffffff" stroke="none" d="M 39.621183 44.900377 C 41.116814 44.900377 42.34044 43.676697 42.34044 42.181093 C 42.34044 40.685488 41.116814 39.461809 39.621183 39.461809 C 38.125551 39.461809 36.901925 40.685488 36.901925 42.181093 C 36.901925 43.676697 38.125551 44.900377 39.621183 44.900377 Z M 34.590543 49.523154 L 30.783664 68.694038 L 33.63879 68.694038 L 36.086175 57.817009 L 38.941435 60.536267 L 38.941435 68.694038 L 41.660693 68.694038 L 41.660693 58.496756 L 38.805432 55.777499 L 39.621183 51.698614 C 41.388821 53.737989 44.108078 55.097752 47.099207 55.097752 L 47.099207 52.378361 C 44.515953 52.378361 42.34044 51.018732 41.252817 49.115266 L 39.893189 46.939833 C 39.349311 46.124056 38.53356 45.580191 37.581807 45.580191 C 37.173932 45.580191 36.901925 45.716154 36.49405 45.716154 L 29.423901 48.707377 L 29.423901 55.097752 L 32.143293 55.097752 L 32.143293 50.474854 Z"/>
</svg>
